# AST/ASF file generated using VICON BodyLanguage
# -----------------------------------------------
:version 1.10
:name VICON
:units
  mass 1.0
  length 0.45
  angle deg
:documentation
   .ast/.asf automatically generated from VICON data using
   VICON BodyBuilder and BodyLanguage model FoxedUp or BRILLIANT.MOD
:root
   order TX TY TZ RX RY RZ
   axis XYZ
   position 0 0 0  
   orientation 0 0 0 
:bonedata
  begin
     id 1 
     name lhipjoint
     direction 0.671379 -0.66392 0.329334 
     length 2.38647 
     axis 0 0 0  XYZ
  end
  begin
     id 2 
     name lfemur
     direction 0.34202 -0.939693 0  
     length 6.48179  
     axis 0 0 20  XYZ
    dof rx ry rz
    limits (-160.0 20.0)
           (-70.0 70.0)
           (-60.0 70.0)
  end
  begin
     id 3 
     name ltibia
     direction 0.34202 -0.939693 0   
     length 6.86524   
     axis 0 0 20   XYZ
    dof rx
    limits (-10.0 170.0)
  end
  begin
     id 4 
     name lfoot
     direction 0.204886 -0.562919 0.800715   
     length 1.73031   
     axis -90 7.62852e-016 20   XYZ
    dof rx rz
    limits (-45.0 90.0)
           (-70.0 20.0)
  end
  begin
     id 5 
     name ltoes
     direction 1.53548e-011 -4.21841e-011 1   
     length 0.828161   
     axis -90 7.62852e-016 20   XYZ
    dof rx
    limits (-90.0 20.0)
  end
  begin
     id 6 
     name rhipjoint
     direction -0.662732 -0.670855 0.332775   
     length 2.3618  
     axis 0 0 0  XYZ 
  end
  begin
     id 7 
     name rfemur
     direction -0.34202 -0.939693 0   
     length 6.3025   
     axis 0 0 -20   XYZ
    dof rx ry rz
    limits (-160.0 20.0)
           (-70.0 70.0)
           (-70.0 60.0)
  end
  begin
     id 8 
     name rtibia
     direction -0.34202 -0.939693 0   
     length 6.8732   
     axis 0 0 -20   XYZ
    dof rx
    limits (-10.0 170.0)
 end
 begin
     id 9 
     name rfoot
     direction -0.173856 -0.477665 0.861168   
     length 1.54784  
     axis -90 -7.62852e-016 -20   XYZ
    dof rx rz
    limits (-45.0 90.0)
           (-20.0 70.0)
  end
  begin
     id 10 
     name rtoes
     direction -1.53562e-011 -4.21802e-011 1   
     length 0.759618   
     axis -90 -7.62852e-016 -20   XYZ
    dof rx
    limits (-90.0 20.0)
  end
  begin
     id 11 
     name lowerback
     direction -0.0278357 0.999497 -0.0151789   
     length 1.97203   
     axis 0 0 0   XYZ
    dof rx ry rz
    limits (-20.0 45.0)
           (-30.0 30.0)
           (-30.0 30.0)
  end
  begin
     id 12 
     name upperback
     direction -0.00360622 0.997542 0.0699804   
     length 1.94709   
     axis 0 0 0   XYZ
    dof rx ry rz
    limits (-20.0 45.0)
           (-30.0 30.0)
           (-30.0 30.0)
  end
  begin
     id 13 
     name thorax
     direction 0.00907706 0.997048 0.0762461   
     length 1.95722   
     axis 0 0 0   XYZ
    dof rx ry rz
    limits (-20.0 45.0)
           (-30.0 30.0)
           (-30.0 30.0)
  end
  begin
     id 14 
     name lowerneck
     direction -0.0481835 0.99872 -0.0153927   
     length 1.63078   
     axis 0 0 0   XYZ
    dof rx ry rz
    limits (-20.0 45.0)
           (-30.0 30.0)
           (-30.0 30.0)
  end
  begin
     id 15 
     name upperneck
     direction 0.0859716 0.979226 -0.183644   
     length 1.62591   
     axis 0 0 0   XYZ
    dof rx ry rz
    limits (-20.0 45.0)
           (-30.0 30.0)
           (-30.0 30.0)
  end
  begin
     id 16
     name head
     direction 0.0324821 0.997629 -0.0606773  
     length 1.64811  
     axis 0 0 0   XYZ
    dof rx ry rz
    limits (-20.0 45.0)
           (-30.0 30.0)
           (-30.0 30.0)
  end
  begin
     id 17 
     name lclavicle
     direction 0.939609 0.311019 0.142835  
     length 3.70647  
     axis 0 0 0   XYZ
    dof ry rz
    limits (-20.0 10.0)
           (0.0 20.0)
  end
  begin
     id 18 
     name lhumerus
     direction 1 -4.48963e-011 -1.59838e-027   
     length 4.59207   
     axis 180 -30 -90   XYZ
    dof rx ry rz
    limits (-60.0 90.0)
           (-90.0 90.0)
           (-90.0 90.0)
  end
  begin
     id 19
     name lradius
     direction 1 -4.48957e-011 -1.3483e-026   
     length 2.98109   
     axis 180 -30 -90   XYZ
    dof rx
    limits (-10.0 170.0)
  end
  begin
     id 20
     name lwrist
     direction 1 -4.48954e-011 -3.11579e-026   
     length 1.49055   
     axis 2.00652e-014 90 90   XYZ
    dof ry
    limits (-180.0 0.0)
 end
  begin
     id 21 
     name lhand
     direction 1 -4.4911e-011 -6.23158e-026   
     length 0.480203   
     axis 3.97628e-014 90 90   XYZ
    dof rx rz
    limits (-90.0 90.0)
           (-45.0 45.0)
  end
  begin
     id 22 
     name lfingers
     direction 1 -4.48893e-011 -1.24632e-025   
     length 0.387152   
     axis 7.95256e-014 90 90   XYZ
    dof rx
    limits (0.0 90.0)
  end
  begin
     id 23
     name lthumb
     direction 0.707107 -6.35013e-011 0.707107   
     length 0.555875   
     axis -90 45 2.85299e-015   XYZ
    dof rx rz
    limits (-45.0 45.0)
           (-45.0 45.0)
  end
  begin
     id 24 
     name rclavicle
     direction -0.950396 0.30392 0.0661859   
     length 3.70894  
     axis 0 0 0   XYZ 
    dof ry rz
    limits (-10.0 20.0)
           (-20.0 0.0)
  end
  begin
     id 25 
     name rhumerus
     direction -1 -4.48957e-011 -2.96677e-027  
     length 4.76508   
     axis 180 30 90   XYZ
    dof rx ry rz
    limits (-90.0 60.0)
           (-90.0 90.0)
           (-90.0 90.0)
  end
  begin
     id 26 
     name rradius
     direction -1 -4.48974e-011 -1.44501e-026   
     length 2.78902   
     axis 180 30 90   XYZ
    dof rx
    limits (-10.0 170.0)
  end
  begin
     id 27 
     name rwrist
     direction -1 -4.48978e-011 -3.11579e-026   
     length 1.39451   
     axis 2.00652e-014 -90 -90   XYZ
    dof ry
    limits (-180.0 0.0)
  end
  begin
     id 28
     name rhand
     direction -1 -4.48956e-011 -6.23158e-026   
     length 0.721303   
     axis 3.97628e-014 -90 -90   XYZ
    dof rx rz
    limits (-90.0 90.0)
           (-45.0 45.0)
  end
  begin
     id 29
     name rfingers
     direction -1 -4.4899e-011 -1.24632e-025   
     length 0.581533   
     axis 7.95256e-014 -90 -90   XYZ
    dof rx
    limits (0.0 90.0)
  end
  begin
     id 30
     name rthumb
     direction -0.707107 -6.34911e-011 0.707107   
     length 0.834968   
     axis -90 -45 -2.85299e-015   XYZ
    dof rx rz
    limits (-45.0 45.0)
           (-45.0 45.0)
  end
:hierarchy
  begin
    root lhipjoint rhipjoint lowerback
    lhipjoint lfemur
    lfemur ltibia
    ltibia lfoot
    lfoot ltoes
    rhipjoint rfemur
    rfemur rtibia
    rtibia rfoot
    rfoot rtoes
    lowerback upperback
    upperback thorax
    thorax lowerneck lclavicle rclavicle
    lowerneck upperneck
    upperneck head
    lclavicle lhumerus
    lhumerus lradius
    lradius lwrist
    lwrist lhand lthumb
    lhand lfingers
    rclavicle rhumerus
    rhumerus rradius
    rradius rwrist
    rwrist rhand rthumb
    rhand rfingers
  end

#!OML:ASF I:\salsa\salsa 7_09\Patient 1\Session 1\dancerfemale.ASF
:FULLY-SPECIFIED
:DEGREES
1288
root -3.63173 16.3341 8.55999 -904.768 789.159 -553.084
lowerback 2.18513 0.733207 -6.60072
upperback 2.6086 1.28223 -6.13448
thorax 1.48726 0.722337 -2.64925
lowerneck 9.70046 -15.1764 -19.3095
upperneck -19.9601 -18.6738 34.5103
head -1.45148 -10.5285 14.6568
rclavicle 5.00937e-014 -8.11041e-014
rhumerus 89.0657 0.0899151 -170.921
rradius 16.7451
rwrist 122.957
rhand -17.0373 438.327
rfingers 7.12502
rthumb 9.19936 408.547
lclavicle 5.00937e-014 -8.11041e-014
lhumerus -24.2902 -13.5409 99.4458
lradius 118.197
lwrist -32.8909
lhand -36.9163 23.9458
lfingers 7.12502
lthumb -9.99386 53.6885
rfemur -33.9501 -15.5675 16.6291
rtibia 34.1411
rfoot -7.20732 14.4355
rtoes -31.6506
lfemur -16.6812 6.41051 -24.578
ltibia 34.9445
lfoot -12.0721 -30.0387
ltoes -6.06181
1289
root -3.58027 16.3366 8.52193 -904.598 788.376 -552.914
lowerback 1.82379 0.446906 -7.22949
upperback 2.76169 0.960579 -6.07214
thorax 1.84441 0.545023 -2.22824
lowerneck 9.56159 -15.5078 -18.8366
upperneck -19.158 -19.3081 33.7715
head -1.21278 -10.8076 14.1173
rclavicle 5.1684e-015 2.70347e-014
rhumerus 89.4529 -1.34118 -169.568
rradius 16.7433
rwrist 120.106
rhand -16.5898 438.653
rfingers 7.12502
rthumb 9.6311 408.893
lclavicle 5.1684e-015 2.70347e-014
lhumerus -23.8369 -13.1311 98.8282
lradius 117.37
lwrist -32.5565
lhand -36.8668 24.8488
lfingers 7.12502
lthumb -9.94611 54.5938
rfemur -33.0957 -14.4705 15.9347
rtibia 32.6878
rfoot -9.31579 14.7901
rtoes -32.7076
lfemur -16.2688 6.998 -24.7568
ltibia 34.5227
lfoot -11.646 -30.9716
ltoes -4.05566
1290
root -3.52199 16.3269 8.48035 -904.02 787.891 -552.229
lowerback 1.58632 0.153795 -7.20043
upperback 2.77658 0.609069 -6.17986
thorax 2.00068 0.371349 -2.35425
lowerneck 9.42768 -15.645 -18.6426
upperneck -18.1473 -19.6888 33.5919
head -0.867719 -10.9729 13.8668
rclavicle -1.66979e-014 -1.24042e-013
rhumerus 89.3907 -3.15454 -167.631
rradius 16.7064
rwrist 116.248
rhand -15.9949 439.073
rfingers 7.12502
rthumb 10.2051 409.34
lclavicle -1.66979e-014 -1.24042e-013
lhumerus -23.9504 -12.5457 97.8712
lradius 116.815
lwrist -32.2
lhand -37.3259 25.8844
lfingers 7.12502
lthumb -10.389 55.6077
rfemur -32.332 -13.5025 15.6888
rtibia 32.052
rfoot -12.8193 13.7814
rtoes -35.1541
lfemur -15.8228 6.97831 -24.6287
ltibia 34.367
lfoot -11.7119 -31.2641
ltoes -2.34034
1291
root -3.45774 16.3104 8.43722 -903.467 787.692 -551.442
lowerback 1.39977 -0.0546943 -6.91171
upperback 2.76975 0.363542 -6.35995
thorax 2.10329 0.258279 -2.70215
lowerneck 9.43535 -15.738 -18.2511
upperneck -17.2989 -19.971 33.1706
head -0.681216 -11.0944 13.5558
rclavicle -9.54166e-015 -1.59028e-014
rhumerus 89.1608 -4.97918 -166.705
rradius 16.5343
rwrist 113.331
rhand -15.3828 439.767
rfingers 7.12502
rthumb 10.7955 410.064
lclavicle -9.54166e-015 -1.59028e-014
lhumerus -24.4307 -11.8396 96.7297
lradius 116.455
lwrist -31.6969
lhand -37.4555 26.2966
lfingers 7.12502
lthumb -10.5141 56.0136
rfemur -31.548 -12.4965 15.6973
rtibia 32.1256
rfoot -15.211 10.1053
rtoes -35.7559
lfemur -15.3307 6.34534 -24.374
ltibia 34.5105
lfoot -12.2938 -30.9378
ltoes -1.13666
1292
root -3.3927 16.2855 8.39412 -903.094 787.824 -550.791
lowerback 1.40181 -0.377493 -6.53292
upperback 2.67642 -0.0709457 -6.53053
thorax 2.00347 0.054643 -3.09197
lowerneck 9.1047 -15.6148 -18.0144
upperneck -16.2758 -19.9688 32.5817
head -0.467618 -11.0249 13.2164
rclavicle 5.36719e-014 4.77083e-015
rhumerus 87.7514 -6.96273 -164.545
rradius 16.4854
rwrist 109.152
rhand -14.642 440.331
rfingers 7.12502
rthumb 11.51 410.667
lclavicle 5.36719e-014 4.77083e-015
lhumerus -25.232 -10.2892 95.2858
lradius 116.314
lwrist -31.1033
lhand -37.1075 25.9067
lfingers 7.12502
lthumb -10.1784 55.6405
rfemur -30.6699 -11.2552 15.7475
rtibia 32.7123
rfoot -15.6568 6.78654
rtoes -34.6411
lfemur -14.9442 5.73869 -24.1327
ltibia 34.9761
lfoot -13.151 -30.4309
ltoes -0.61522
1293
root -3.32723 16.2587 8.35108 -902.496 788.349 -549.886
lowerback 1.3616 -0.697895 -6.1672
upperback 2.62771 -0.515915 -6.45421
thorax 1.96641 -0.167464 -3.21686
lowerneck 8.27352 -15.4389 -17.8664
upperneck -15.1407 -19.8873 31.6231
head -0.198392 -10.8536 12.7194
rclavicle 2.26615e-014 -6.36111e-014
rhumerus 85.3118 -8.68064 -160.931
rradius 16.506
rwrist 103.961
rhand -13.7695 440.751
rfingers 7.12502
rthumb 12.3514 411.136
lclavicle 2.26615e-014 -6.36111e-014
lhumerus -26.0615 -8.04411 93.9716
lradius 116.344
lwrist -30.2256
lhand -36.4378 25.7713
lfingers 7.12502
lthumb -9.53227 55.5357
rfemur -29.6709 -9.93174 16.0722
rtibia 33.6395
rfoot -15.7198 5.11442
rtoes -34.3765
lfemur -14.6629 5.32602 -23.7743
ltibia 35.6813
lfoot -14.111 -29.7232
ltoes -0.22976
1294
root -3.2592 16.2327 8.30636 -901.454 789.285 -548.548
lowerback 1.06631 -0.849769 -5.44357
upperback 2.6669 -0.704309 -6.42195
thorax 2.15765 -0.258263 -3.59192
lowerneck 7.37851 -15.3452 -17.4261
upperneck -14.1627 -19.8359 30.5285
head -0.00305372 -10.7051 12.1439
rclavicle -2.0276e-014 -3.65764e-014
rhumerus 82.5668 -10.163 -156.408
rradius 16.7492
rwrist 98.072
rhand -12.9262 441.356
rfingers 7.12502
rthumb 13.1644 411.791
lclavicle -2.0276e-014 -3.65764e-014
lhumerus -26.8497 -5.83908 92.5589
lradius 116.503
lwrist -28.6134
lhand -35.9224 26.3008
lfingers 7.12502
lthumb -9.03488 56.0873
rfemur -28.6134 -8.50303 16.718
rtibia 34.713
rfoot -15.6837 4.66663
rtoes -34.8642
lfemur -14.4895 5.17864 -23.2634
ltibia 36.5725
lfoot -15.0602 -28.9119
ltoes 0.117156
1295
root -3.18707 16.2073 8.26094 -900.127 790.574 -546.955
lowerback 0.662807 -0.793874 -4.67767
upperback 2.69446 -0.614691 -6.37413
thorax 2.40309 -0.209158 -3.97562
lowerneck 6.85532 -15.1988 -16.953
upperneck -13.5979 -19.6489 29.7158
head 0.0259552 -10.5438 11.7524
rclavicle -3.02153e-014 0
rhumerus 79.4948 -11.4865 -150.994
rradius 17.2359
rwrist 91.6163
rhand -12.0974 442.136
rfingers 7.12502
rthumb 13.9632 412.625
lclavicle -3.02153e-014 0
lhumerus -27.8618 -3.68008 91.1511
lradius 116.755
lwrist -26.8903
lhand -35.7534 26.7195
lfingers 7.12502
lthumb -8.87187 56.513
rfemur -27.3799 -7.08582 17.5539
rtibia 35.759
rfoot -15.8389 5.368
rtoes -35.4573
lfemur -14.3807 5.70743 -22.6825
ltibia 37.5379
lfoot -15.8075 -28.4295
ltoes 0.700988
1296
root -3.11281 16.1856 8.2143 -898.577 792.061 -545.197
lowerback 0.345701 -0.674451 -3.99818
upperback 2.59847 -0.472158 -6.23158
thorax 2.47821 -0.137064 -4.20794
lowerneck 6.6197 -14.9088 -16.7455
upperneck -13.2233 -19.2773 29.181
head -0.0148697 -10.3206 11.5618
rclavicle -4.53229e-014 -1.59028e-014
rhumerus 75.7934 -12.5343 -145.083
rradius 17.8088
rwrist 84.4974
rhand -11.1477 442.837
rfingers 7.12502
rthumb 14.8782 413.391
lclavicle -4.53229e-014 -1.59028e-014
lhumerus -29.1543 -1.24519 89.8075
lradius 117.019
lwrist -25.4773
lhand -35.6002 27.3474
lfingers 7.12502
lthumb -8.72399 57.1471
rfemur -26.0294 -5.78479 18.4664
rtibia 36.5869
rfoot -15.9541 6.64558
rtoes -36.7557
lfemur -14.3646 6.90864 -22.1244
ltibia 38.5095
lfoot -16.2118 -28.282
ltoes 1.84424
